# xmcd CD database file
#
# Track frame offsets:
#	150
#	12458
#	23548
#	34560
#	49423
#	64754
#	82921
#	94878
#	107011
#	123873
#	132940
#	144553
#	160918
#	170203
#	181846
#	200391
#	217365
#	229471
#	238816
#	250963
#	260830
#	270625
#	284576
#	294046
#	302866
#	318503
#
# Disc length: 4428 seconds
#
# Revision: 0
# Processed by: cddbd v1.5.2PL0 Copyright (c) Steve Scherf et al.
# Submitted via: CDex 1.70beta2
#
DISCID=89114a1a
DTITLE=Various Artist - All American Music Club Christmas CD
DYEAR=0000
DGENRE=Country
TTITLE0=Blue Christmas - Charlie McCoy
TTITLE1=White Christmas - Hank Snow
TTITLE2=The Little Drummer Boy - Narvel Felts
TTITLE3=Everything Is Good, Everything Is OK - John Prine
TTITLE4=Santa Can't Stay - Dwight Yoakam
TTITLE5=Jingle Bells - Fats Domino
TTITLE6=Two Step Around The Cristmas Tree - Suzy Boggus
TTITLE7=Blue Christmas - Peter Gordon
TTITLE8=Little Snowflakes - Jack Jersey
TTITLE9=The Christmas Cannonball - Hank Snow
TTITLE10=Pretty Paper - Randy Travis
TTITLE11=Christmas As I Knew It - Johnny Cash
TTITLE12=Christmas Time is Coming - Charlie McCoy
TTITLE13=I Will Be Home Again - Ty Tender
TTITLE14=Gone Girl - Jack Jersey
TTITLE15=Once A Year - Andy Lee Lang
TTITLE16=Oh Holy Night - Charlie McCoy
TTITLE17=Good Old Christmas - Loretta Lynn
TTITLE18=Here Was A Man - Johnny Cash
TTITLE19=Merry Texas Christmas You All - Michael Martin Murphy
TTITLE20=Santa Looked A Lot Like Daddy - Buck Owens
TTITLE21=Merry Christmas Sweet Memory - Jack Jersey
TTITLE22=Frosty The Snowman - Hank Snow
TTITLE23=Let It Snow, Let It Snow, Let It Snow - Dean Martin
TTITLE24=Amacing Grace - Fats Domino
TTITLE25=Silent Night - Joe Sun
EXTD=YEAR: 0000
EXTT0=
EXTT1=
EXTT2=
EXTT3=
EXTT4=
EXTT5=
EXTT6=
EXTT7=
EXTT8=
EXTT9=
EXTT10=
EXTT11=
EXTT12=
EXTT13=
EXTT14=
EXTT15=
EXTT16=
EXTT17=
EXTT18=
EXTT19=
EXTT20=
EXTT21=
EXTT22=
EXTT23=
EXTT24=
EXTT25=
PLAYORDER=
